# Blender v2.78 (sub 0) OBJ File: ''
# www.blender.org
mtllib tafel2.mtl
o Cube.009
v -0.200343 0.708643 3.198211
v -0.200343 1.008643 3.198211
v -0.200343 0.708643 -0.201789
v -0.200343 1.008643 -0.201789
v 1.799657 0.708643 3.198211
v 1.799657 1.008643 3.198211
v 1.799657 0.708643 -0.201789
v 1.799657 1.008643 -0.201789
vn -1.0000 0.0000 0.0000
vn 0.0000 0.0000 -1.0000
vn 1.0000 0.0000 0.0000
vn 0.0000 0.0000 1.0000
vn 0.0000 -1.0000 0.0000
vn 0.0000 1.0000 0.0000
usemtl None
s off
f 1//1 2//1 4//1 3//1
f 3//2 4//2 8//2 7//2
f 7//3 8//3 6//3 5//3
f 5//4 6//4 2//4 1//4
f 3//5 7//5 5//5 1//5
f 8//6 4//6 2//6 6//6
o Cube.008
v 1.400000 -1.000000 3.200000
v 1.400000 1.000000 3.200000
v 1.400000 -1.000000 2.800000
v 1.400000 1.000000 2.800000
v 1.800000 -1.000000 3.200000
v 1.800000 1.000000 3.200000
v 1.800000 -1.000000 2.800000
v 1.800000 1.000000 2.800000
vn -1.0000 0.0000 0.0000
vn 0.0000 0.0000 -1.0000
vn 1.0000 0.0000 0.0000
vn 0.0000 0.0000 1.0000
vn 0.0000 -1.0000 0.0000
vn 0.0000 1.0000 0.0000
usemtl None
s off
f 9//7 10//7 12//7 11//7
f 11//8 12//8 16//8 15//8
f 15//9 16//9 14//9 13//9
f 13//10 14//10 10//10 9//10
f 11//11 15//11 13//11 9//11
f 16//12 12//12 10//12 14//12
o Cube.007
v 1.400000 -1.000000 0.200000
v 1.400000 1.000000 0.200000
v 1.400000 -1.000000 -0.200000
v 1.400000 1.000000 -0.200000
v 1.800000 -1.000000 0.200000
v 1.800000 1.000000 0.200000
v 1.800000 -1.000000 -0.200000
v 1.800000 1.000000 -0.200000
vn -1.0000 0.0000 0.0000
vn 0.0000 0.0000 -1.0000
vn 1.0000 0.0000 0.0000
vn 0.0000 0.0000 1.0000
vn 0.0000 -1.0000 0.0000
vn 0.0000 1.0000 0.0000
usemtl None
s off
f 17//13 18//13 20//13 19//13
f 19//14 20//14 24//14 23//14
f 23//15 24//15 22//15 21//15
f 21//16 22//16 18//16 17//16
f 19//17 23//17 21//17 17//17
f 24//18 20//18 18//18 22//18
o Cube.001
v -0.200000 -1.000000 3.200000
v -0.200000 1.000000 3.200000
v -0.200000 -1.000000 2.800000
v -0.200000 1.000000 2.800000
v 0.200000 -1.000000 3.200000
v 0.200000 1.000000 3.200000
v 0.200000 -1.000000 2.800000
v 0.200000 1.000000 2.800000
vn -1.0000 0.0000 0.0000
vn 0.0000 0.0000 -1.0000
vn 1.0000 0.0000 0.0000
vn 0.0000 0.0000 1.0000
vn 0.0000 -1.0000 0.0000
vn 0.0000 1.0000 0.0000
usemtl None
s off
f 25//19 26//19 28//19 27//19
f 27//20 28//20 32//20 31//20
f 31//21 32//21 30//21 29//21
f 29//22 30//22 26//22 25//22
f 27//23 31//23 29//23 25//23
f 32//24 28//24 26//24 30//24
o Cube
v 0.200000 -1.000000 -0.200000
v 0.200000 -1.000000 0.200000
v -0.200000 -1.000000 0.200000
v -0.200000 -1.000000 -0.200000
v 0.200000 1.000000 -0.200000
v 0.200000 1.000000 0.200000
v -0.200000 1.000000 0.200000
v -0.200000 1.000000 -0.200000
vn 0.0000 -1.0000 -0.0000
vn 0.0000 1.0000 0.0000
vn 1.0000 0.0000 0.0000
vn -0.0000 -0.0000 1.0000
vn -1.0000 -0.0000 -0.0000
vn 0.0000 0.0000 -1.0000
usemtl Material
s off
f 33//25 34//25 35//25 36//25
f 37//26 40//26 39//26 38//26
f 33//27 37//27 38//27 34//27
f 34//28 38//28 39//28 35//28
f 35//29 39//29 40//29 36//29
f 37//30 33//30 36//30 40//30
o Cube.002
v 0.200000 -1.000000 -0.200000
v 0.200000 -1.000000 0.200000
v -0.200000 -1.000000 0.200000
v -0.200000 -1.000000 -0.200000
v 0.200000 1.000000 -0.200000
v 0.200000 1.000000 0.200000
v -0.200000 1.000000 0.200000
v -0.200000 1.000000 -0.200000
vn 0.0000 -1.0000 -0.0000
vn 0.0000 1.0000 0.0000
vn 1.0000 0.0000 0.0000
vn -0.0000 -0.0000 1.0000
vn -1.0000 -0.0000 -0.0000
vn 0.0000 0.0000 -1.0000
usemtl Material.001
s off
f 41//31 42//31 43//31 44//31
f 45//32 48//32 47//32 46//32
f 41//33 45//33 46//33 42//33
f 42//34 46//34 47//34 43//34
f 43//35 47//35 48//35 44//35
f 45//36 41//36 44//36 48//36
o Cube.003
v 0.200000 -1.000000 -0.200000
v 0.200000 -1.000000 0.200000
v -0.200000 -1.000000 0.200000
v -0.200000 -1.000000 -0.200000
v 0.200000 1.000000 -0.200000
v 0.200000 1.000000 0.200000
v -0.200000 1.000000 0.200000
v -0.200000 1.000000 -0.200000
vn 0.0000 -1.0000 -0.0000
vn 0.0000 1.0000 0.0000
vn 1.0000 0.0000 0.0000
vn -0.0000 -0.0000 1.0000
vn -1.0000 -0.0000 -0.0000
vn 0.0000 0.0000 -1.0000
usemtl Material.002
s off
f 49//37 50//37 51//37 52//37
f 53//38 56//38 55//38 54//38
f 49//39 53//39 54//39 50//39
f 50//40 54//40 55//40 51//40
f 51//41 55//41 56//41 52//41
f 53//42 49//42 52//42 56//42
o Cube.004
v 0.200000 -1.000000 -0.200000
v 0.200000 -1.000000 0.200000
v -0.200000 -1.000000 0.200000
v -0.200000 -1.000000 -0.200000
v 0.200000 1.000000 -0.200000
v 0.200000 1.000000 0.200000
v -0.200000 1.000000 0.200000
v -0.200000 1.000000 -0.200000
vn 0.0000 -1.0000 -0.0000
vn 0.0000 1.0000 0.0000
vn 1.0000 0.0000 0.0000
vn -0.0000 -0.0000 1.0000
vn -1.0000 -0.0000 -0.0000
vn 0.0000 0.0000 -1.0000
usemtl Material.003
s off
f 57//43 58//43 59//43 60//43
f 61//44 64//44 63//44 62//44
f 57//45 61//45 62//45 58//45
f 58//46 62//46 63//46 59//46
f 59//47 63//47 64//47 60//47
f 61//48 57//48 60//48 64//48
o Cube.005
v 0.200000 -1.000000 -0.200000
v 0.200000 -1.000000 0.200000
v -0.200000 -1.000000 0.200000
v -0.200000 -1.000000 -0.200000
v 0.200000 1.000000 -0.200000
v 0.200000 1.000000 0.200000
v -0.200000 1.000000 0.200000
v -0.200000 1.000000 -0.200000
vn 0.0000 -1.0000 -0.0000
vn 0.0000 1.0000 0.0000
vn 1.0000 0.0000 0.0000
vn -0.0000 -0.0000 1.0000
vn -1.0000 -0.0000 -0.0000
vn 0.0000 0.0000 -1.0000
usemtl Material.004
s off
f 65//49 66//49 67//49 68//49
f 69//50 72//50 71//50 70//50
f 65//51 69//51 70//51 66//51
f 66//52 70//52 71//52 67//52
f 67//53 71//53 72//53 68//53
f 69//54 65//54 68//54 72//54
o Cube.006
v 0.200000 -1.000000 -0.200000
v 0.200000 -1.000000 0.200000
v -0.200000 -1.000000 0.200000
v -0.200000 -1.000000 -0.200000
v 0.200000 1.000000 -0.200000
v 0.200000 1.000000 0.200000
v -0.200000 1.000000 0.200000
v -0.200000 1.000000 -0.200000
vn 0.0000 -1.0000 -0.0000
vn 0.0000 1.0000 0.0000
vn 1.0000 0.0000 0.0000
vn -0.0000 -0.0000 1.0000
vn -1.0000 -0.0000 -0.0000
vn 0.0000 0.0000 -1.0000
usemtl Material.005
s off
f 73//55 74//55 75//55 76//55
f 77//56 80//56 79//56 78//56
f 73//57 77//57 78//57 74//57
f 74//58 78//58 79//58 75//58
f 75//59 79//59 80//59 76//59
f 77//60 73//60 76//60 80//60
